<?xml version="1.0" encoding="utf-8"?>
<!-- Generator: Adobe Illustrator 16.0.0, SVG Export Plug-In . SVG Version: 6.00 Build 0)  -->
<!DOCTYPE svg PUBLIC "-//W3C//DTD SVG 1.1//EN" "http://www.w3.org/Graphics/SVG/1.1/DTD/svg11.dtd">
<svg version="1.1" id="Layer_1" xmlns="http://www.w3.org/2000/svg" xmlns:xlink="http://www.w3.org/1999/xlink" x="0px" y="0px"
	 width="500px" height="800px" viewBox="0 0 500 800" enable-background="new 0 0 500 800" xml:space="preserve">
<path fill="#FFFFFF" stroke="#000000" stroke-miterlimit="10" d="M39,322.5"/>
<path fill="#FFFFFF" stroke="#000000" stroke-miterlimit="10" d="M318.25,312.333"/>
<path fill="none" d="M290.333,294"/>
<g>
	<g>
		<defs>
			<path id="SVGID_1_" d="M481.014,176.603L480.139,170l-0.75-5.625l-0.75-4.875l-1.25-6l-1.625-5.875l-1.875-5.875l-2.75-6.25
				l-3-5.375l-3.25-5.25l-4.25-5.25l-4.25-4.5l-4.125-3.625l-3.25-2.875l-4.125-2.75c0,0-2.125-1.625-2.625-1.75
				s-6.125-3.25-6.125-3.25l-5.375-2.5l-7.875-2.25L416.264,95l-8-0.75c0,0-8.375-0.375-10.25-0.125s-11.25,1.625-11.25,1.625
				l-10.5,2.375l-8.75,3l-9.625,4.25l-8.25,4.875l-8.875,6.625l-5.125,4.5l-4.125,4.125l-2.5,3.5l-4.625,6l-1.25,0.5l-1.5-1.625
				V130.5v-1l-0.625-4.25l-1.5-5.375l-1.5-4.5l-2.125-5.75l-2.375-5l-2.043-3.92l-2.832-4.833l-5.168-7.5l-3.832-4.833l-3.5-4.167
				l-5.5-5.333l-4.168-3.5l-4.832-4.167l-5.334-3.833l-5-3.333l-4.834-2.667l-4.166-1.833l-4.5-1.833l-3.924-1.333l-4.243-1.333
				l-4.333-0.833l-5.333-0.667l-5.833-0.833h-3h-1.5h-2.333h-1.833l-1.833,1h-1l-4.5,1.333l-5.333,1.167l-4.5,1.167l-4.5,1.833
				l-4.333,2l-4.5,2.5l-3.167,1.833l-2.704,2.167l-3.63,2.667l-4.5,4.333l-7.667,8.5l-6.167,8.667l-5.833,9.165l-3.5,7.499l-3.5,8
				l-1.5,5.167l-1.833,6l-1,5.497l-0.833,4.333l-0.833,4.5l-0.5,4.166l-0.667,6.499l-0.167,4.5l-0.333,7.332l0.167,5.666
				l0.167,6.164l0.333,3.833l0.333,3.167l0.167,4.332l0.833,4.666l0.833,4.832l1.5,7l1.333,5.497l3,9.332l3.167,7.832l3.167,6.498
				l3.5,6.331l3.833,5.998l4.167,6.498l4.833,7.333l6.667,10l2.667,3.994c0,0,0.833,1.667,1.5,2.167s0,2,0,2v1.5l-1,2.667
				l-1.667,5.5l-1,4.833l-0.833,2.5v1.333l-0.667,4.167v3.833v2.333v2l-1,1.833l-1.667-1.167l-0.833-1l-1.333-1.5l-1.5-1.5l-1.667-2
				l-2.333-2.333l-2.333-2l-2-1.833l-2-1.5l-1.833-1.333L163.305,288l-2.5-1.5l-2-1.333l-2.333-1.333l-2.5-1.333l-2.167-1l-2.833-1
				l-2.333-1.167l-2.833-1l-2.667-1l-2.333-0.667l-2.333-0.833L133.638,275l-3.333-0.667l-3.167-0.667l-2.5-0.333l-3.833-0.5
				l-4.333-0.667h-3.667h-4.5h-4.5h-4.5l-6.333,1l-4.5,1L81.305,276l-6.167,2.333l-7.333,4l-5.167,3.167l-5.167,4l-4,3.5
				l-4.667,5.167l-2.834,3.167l-2.833,4.333l-3.5,5.834l-4,8.666L33.305,326l-1.333,5.667l-1.833,10.5l-1.167,10.5v6l1.167,11l1.5,9
				l1.667,7.667l3,9.833l3.167,8.167L42.804,411l3.833,7.666l3.167,5.667l4.333,7l4.167,6l5,6.833l7.167,8.5l6.333,6.167
				l5.833,4.833l5.833,4.5l6.333,4.167l4.333,3l7.167,4l7.5,3.835l5.667,3l5.667,2.5l5.333,2l6,2.5l5.667,1.832l4,1.666l5,1.667
				l7.167,2.667l7.833,2.833l9.333,3l3,1.335l1.5,1.165l0.5,1.667l0.667,4l1.667,6.834l1.833,5.5l2.5,7l2.833,6.834l2.167,5l2.833,6
				l3.167,5.666l2,3l1.333,2.666l2,3.166l2,2.834l3.667,5.834l3.5,5.5l3.333,5l3,4.5l2.833,4.5L224.47,599l3.333,5.168l2.333,3.832
				l3.833,6.334l3.333,5.166l3.833,6.668l3.5,6.666l2.167,4.166l2.167,4.666l1.667,3.834l1.5,3.5l2.832,8l1.5,5.666l0.668,2.334
				l0.5,1.666l0.666,1.334h1.334l1.332-1l3-2.5l4.834-4l3.166-2.5l2.668-1.834l3.832-2.666l3.168-2l5.832-3.166l5.668-2.5l4.332-2
				l5.834-2.5l10.834-4.5l9.332-3.666l6.834-2.834l8.166-3.166l9.668-3.5l7-2.834l6.166-2.168l7-2.832l8.834-3.668l8-4.5l5-2.832
				l4.166-3l5.666-4.334l5.334-5l5-4.834l4.834-5.832l4.166-5.834l2.834-4l3-5.5l2.832-5l2.5-5.832l2.168-5.668l1.832-4.332l1-5
				l1.334-4.168l1-6.166l0.666-6.5l0.668-7.834l-0.334-6.666l-0.5-5l-1-5.5l-1-5.668l-2-6.332l-2.166-5.334l-2.5-5.625L426.514,471
				l-2.875-3.75l-3.125-3.5l-3.625-3.25l-3.375-2.875l-4.375-3l-5.25-3.125l-4.375-2.125l-5.5-1.875l-5.75-1.5l-7.625-1h-3.5h-4.125
				l-4.375,0.25l-5,0.5l-4.75,0.625l-6,1.75l-5.375,1.5l-5.478,2.552l-5.522,2.573l-4.5,2.5l-4.75,3.5l-4,3.375l-3.125,3
				l-3.25,4.375l-1.625,0.75l-0.875-2.25l-0.25-2l-0.625-3l-0.625-3.125l-0.5-3.625l-0.375-2.5l-0.125-2.25l0.625-2.375l1.25-2.25
				l1.875-2.75l1.375-2.5l1.625-2.375l1.5-2.5l1.875-2.875l2-3l2-3.125l1.375-2.5l2.375-3.625l2.375-3.75l1.875-3.25l1.875-3.125
				l1.375-2.625l1.75-3.125l1.875-3.5l1.875-3.625l1.875-4.125l1.625-3.25l1.25-2.625l1.125-3l1.25-3.125l1.5-3.375l1.5-4.25
				l1.625-4.875l1.25-4.5l1.125-3.625l0.625-3.125l1-3.964l0.75-4.536l0.75-4.125l0.5-3.875l0.25-3.875l0.25-3.5l0.125-2.75
				l0.375-2.5l0.875-1.5l1.375-1l3.5-2l2.625-1.125l4.25-1.875l4.125-1.875l3.625-1.875l3.875-1.875l3.25-1.75l3-1.75l2.625-1.5
				l3.5-2l6.5-3.75l4.25-2.417l3.375-2.583l3.625-2.25l3.25-2.25l3.75-2.75l5.75-4.5l6-5.375l3.75-3.875l3.25-3.5l3.375-3.875
				l3.25-4.125l3-3.875l2.875-4.625l3.375-4.75l2.75-4.375l2.25-4.25l1.5-2.5l2-4l3.75-8.5l2.625-6.625l2.25-6.75l2.125-7
				l2.875-13.375l0.75-5c0,0,0.125-3.25,0.625-5.5S481.014,176.603,481.014,176.603z M312.139,493.75l3.25-4l2.75-3l4.5-3l8.25-3.75
				l8-2.25l9-2h10.25l7.5,2.5l10.25,5.5l4.25,3.75l5,5.25l4,6.75l3.5,11l1.5,7.5v8v9l-2.5,8.75l-3.25,8.5l-4,7.75l-4.5,7l-4.25,5.5
				l-5.5,5.25l-5.5,5.25l-9,5.25l-9.25,4l-7.75,3.25l-8.5,3.25l-13.5,5l-11,4l-11,5.25l-10,4.5l-6.25,4.75l-4,2.25l-2.75,2.5h-1.75
				l-1.25-4.25l-2.75-7.75l-5.25-12l-4-7.25l-3.5-6l-5-7.25l-4-5.75l-3.75-5.5l-3.5-5.5l-3.5-5.25l-3.75-6l-3-6l-2.75-5.75
				l-2.25-5.25l-2-5l-1.25-5v-3.25l2-0.25l5.25,2.75l11.75,6.25l9,5.25l8.715,6.5l5.285,4c0,0,2.5,2.5,3.5,2.625
				s2.75,0.375,3.75-6.375s2.25-7.75,2.25-7.75l2.25-7.75l4.5-13.5l2.25-5l3-6.25l8.5-17l5-8.75l3.75-6c0,0,1.5-1,2.25,0
				s1.75,3.75,1.75,3.75l1.75,4.5l1.375,6.25c0,0,1.375,3.75,1.125,9.25s0.75,1.75,0.75,1.75l1.5-0.75L312.139,493.75z
				 M221.515,474.04l-0.209,0.462C221.305,474.502,221.459,474.142,221.515,474.04l2.291-5.038l4.167-7l3.801-4.333l4.365-4.167
				l4.167-3.167l4.5-2.5l3.667-1.5l3.667-0.833l3.834-0.833h2c0,0,0.998-0.666,4.166,0c3.166,0.665,4.5,0.665,4.5,0.665l2.166,0.668
				l2.168,0.832v1.835l-1.668,3.333l-1.332,3l-2.5,3.833l-1.834,3.667l-1.5,3.5l-2.5,5l-3.166,7.333l-2.834,7.334l-2.167,7
				l-0.833,2.666l-0.833,3l-0.5,2c0,0-0.667,1.168-1.5,1.334s-3-1.334-3-1.334l-9.167-6.666l-5.667-3.667l-5.5-3l-4.167-1.833
				l-1.333-1c0,0-1-1,1.167-6.5C221.45,474.341,221.6,473.885,221.515,474.04z M313.305,365c-2.332,7-1.666,9.667-1.666,9.667
				L307.973,384l-5.334,13l-4.334,8l-5.666,9l-2.666,5l-1.668,0.667L281.973,414l-6.668-5l-14-6.333l-8.332-2l-7.667-1h-7.333
				L228.305,402l-8,3l-7,5l-6,4.667L197.972,425l-6,9.668l-4,7.665l-2.667,7.335l-6.667,19.666l-16.667-6l-27.333-12.666
				L120.972,441l-14-14.332l-7-10.334l-4.667-9.667l-4.667-11.333l-3.333-12.667l-1.333-14.333V356l3.333-10l4.333-10l5.667-7.667
				l7.333-7l7.667-4.667l5-2.667l10-2.5h6.667h8.667h5.667l7.667,2.167l8,3l7,3.333l5.667,3.333l5.667,4.333l3.667,5l2.333,3.667
				l1.667,1.333l1.667-3c0,0-1-5.333,0-10s1.667-9,1.667-9L199.972,304l5-8.667h2c0,0,3.333,2.667,5.667,6s5.667,7.333,5.667,7.333
				l5.667,8l5.333,7.667l7,10.333l5.333,9l5.667,9.333l3.333,6.333l4.465,8l3.201,9l3.334,9c0,0,1,3.667,3,3.667s6-3.333,6-3.333
				L280.973,376l11-9.667l11-6.333l8-5.333h2.332C313.305,354.667,315.639,358,313.305,365z M235.638,271.667v-2l5-1.667l13-3.333
				l7,1.667l11.332,3.333l8.668,4.833l10.332,8.5l8.334,11l5.334,7.333l4,10c0,0,2,1.667,0,4.667s-5.668,2.333-5.668,2.333
				l-5.332,4.333L291.305,326l-6,5.333l-4.334,4l-3.332,3h-2l-0.668-3.667L272.582,330l-2.277-5.667l-3-7L262.971,310l-4.666-8.5
				l-3.201-4.833l-4.465-6.333l-5-6l-6.333-8L235.638,271.667z M426.639,203.333l-1.666,10l-3,11.667l-5.334,11.333l-4.666,7
				l-5.334,9l-7,9.333L392.305,269l-9.666,8.333l-12,7c0,0,0.666-2.333-6.334,3s-7,2.333-7,2.333L354.973,284l-2-7.333l-1.668-5
				l-2.332-7l-3.668-6.333L341.639,251l-3.334-4l-5-6.333l-4.332-6l-5.668-5l-7-6.333l-10.332-6.667l-7-3l-8.334-3.333l-5.334-0.667
				l-6.332-2h-8h-4.668L255.104,210l-7.465,2l-10,4.667l-9,5.333l-9,7.667L214.972,234l-2.333,2.333h-1.667l-2.667-3.667
				l-3.667-6.333l-3.667-10l-3-8l-1-5.667c0,0,0-6.333-1.333-10s0-13.667,0-13.667v-12.333l1.667-8.333l3-10l4.333-10l4.667-7.667
				l7.333-9.667l6.333-6l7-4.667l5.667-2.333l5.333-2l8.333-2h9.334l11,3l14.332,7.333l10.002,8.333l8.332,8.667l4.334,6.667
				c0,0-2-1.333,1.334,3.333s6,14.333,6,14.333l0.666,10.667l1,2.667l3.25-1.667l2.416-6.333l7.668-8.333l8.332-5.667l11.334-5.667
				c0,0,6-2,12.666-4c6.668-2,23.334,0,23.334,0l8.334,3l6.666,3l7.666,6l6,6.667l6,7.667l4.668,11l2.666,17.667L426.639,203.333
				L426.639,203.333z"/>
		</defs>
		<clipPath id="SVGID_2_">
			<use xlink:href="#SVGID_1_"  overflow="visible"/>
		</clipPath>
		<g clip-path="url(#SVGID_2_)">
			<g>
				<path fill="#FFFFFF" d="M20.7,789.576c0-288.143,0-576.286,0-864.43c155.981,0,311.961,0,467.944,0
					c0,288.144,0,576.287,0,864.43C332.661,789.576,176.682,789.576,20.7,789.576z M481.436,180.911
					c-1.084-8.157-1.674-16.416-3.35-24.447c-3.461-16.583-10.564-31.245-23.375-42.958c-18.14-16.582-39.558-21.652-63.228-18.528
					c-12.014,1.586-23.621,5.109-34.404,10.922c-12.938,6.974-24.229,15.787-32.092,28.489c-0.403,0.65-1.215,1.049-1.838,1.564
					c-0.406-0.771-1.133-1.524-1.174-2.315c-0.406-7.667-2.283-14.982-5.238-22.02c-6.92-16.481-17.149-30.496-30.957-41.958
					c-15.586-12.938-32.807-21.565-53.56-21.578c-1.578-0.001-3.174-0.507-4.729-0.38c-1.575,0.129-3.117,0.729-4.662,1.163
					c-6.258,1.763-12.747,2.966-18.72,5.424c-17.698,7.289-29.846,21.063-39.691,36.749c-9.57,15.248-14.376,32.409-16.562,50.21
					c-1.593,12.986-1.548,25.999-0.122,39.062c2.265,20.735,8.192,40.146,19.53,57.748c6.807,10.564,13.738,21.051,20.71,31.507
					c1.136,1.703,1.379,3.165,0.677,5.081c-3.33,9.075-5.51,18.365-4.981,28.143c0.042,0.783-0.665,1.607-1.024,2.413
					c-0.672-0.436-1.534-0.729-1.987-1.329c-4.558-6.021-9.964-10.993-16.298-15.22c-12.979-8.662-27.295-13.665-42.53-15.802
					c-9.755-1.368-19.632-1.222-29.515,0.523c-23.5,4.15-40.467,17.342-52.232,37.447c-6.938,11.853-9.982,25.121-10.521,38.82
					c-0.839,21.357,2.867,41.829,12.952,60.886c3.363,6.354,6.608,12.803,10.448,18.865c8.512,13.438,18.458,25.617,31.234,35.418
					c15.93,12.218,33.455,21.336,52.204,28.222c13.413,4.926,26.905,9.633,40.387,14.37c2.17,0.763,3.478,1.754,3.885,4.31
					c0.678,4.247,1.723,8.469,2.988,12.585c5.516,17.931,14.1,34.307,24.653,49.811c9.449,13.88,18.449,28.085,27.159,42.442
					c7.254,11.956,14.071,24.216,18.517,37.585c1.271,3.814,2.144,7.763,3.351,11.601c0.971,3.081,1.813,3.257,4.121,1.2
					c9.514-8.472,19.793-15.849,31.5-20.959c11.858-5.175,23.811-10.152,35.838-14.924c15.407-6.113,31.146-11.442,46.352-18.01
					c17.137-7.402,31.129-19.188,42.334-34.141c6.904-9.213,11.859-19.494,15.756-30.295c4.109-11.395,5.888-23.216,5.939-35.27
					c0.02-4.079-0.695-8.188-1.34-12.239c-2.879-18.103-10.203-33.67-25.652-44.563c-5.609-3.955-11.551-7.248-18.182-9.102
					c-16.214-4.528-32.188-3.218-47.656,2.946c-11.295,4.5-22.027,10.12-29.062,20.767c-0.348,0.525-1.221,0.704-1.85,1.044
					c-0.35-0.716-0.881-1.397-1.02-2.152c-0.88-4.784-1.796-9.569-2.425-14.392c-0.205-1.582-0.065-3.565,0.73-4.864
					c6.822-11.105,14.012-21.989,20.736-33.152c7.19-11.935,13.354-24.421,18.299-37.467c5.727-15.104,9.022-30.713,9.596-46.895
					c0.049-1.367,0.99-3.23,2.104-3.929c2.905-1.822,6.086-3.254,9.25-4.618c15.829-6.825,30.569-15.625,44.854-25.155
					c16.885-11.263,30.092-26.299,40.656-43.381C472.4,233.261,480.563,208.265,481.436,180.911z"/>
				<path fill="#FB4949" d="M481.436,180.911c-0.873,27.354-9.035,52.351-23.211,75.272c-10.564,17.083-23.771,32.119-40.656,43.381
					c-14.285,9.53-29.024,18.331-44.854,25.155c-3.164,1.364-6.345,2.795-9.25,4.618c-1.113,0.698-2.056,2.562-2.104,3.929
					c-0.572,16.182-3.869,31.79-9.596,46.895c-4.945,13.046-11.107,25.532-18.299,37.467c-6.726,11.163-13.914,22.047-20.736,33.152
					c-0.797,1.299-0.936,3.282-0.73,4.864c0.63,4.821,1.546,9.605,2.425,14.392c0.139,0.754,0.67,1.438,1.02,2.152
					c0.629-0.34,1.502-0.519,1.851-1.044c7.032-10.646,17.766-16.267,29.061-20.767c15.469-6.164,31.443-7.476,47.656-2.946
					c6.631,1.854,12.571,5.146,18.182,9.102c15.449,10.895,22.773,26.462,25.652,44.563c0.645,4.053,1.358,8.16,1.34,12.239
					c-0.053,12.054-1.83,23.875-5.939,35.27c-3.896,10.801-8.852,21.082-15.756,30.295c-11.205,14.952-25.197,26.737-42.334,34.14
					c-15.205,6.567-30.942,11.896-46.352,18.011c-12.027,4.771-23.979,9.749-35.838,14.924c-11.707,5.109-21.986,12.487-31.5,20.959
					c-2.31,2.057-3.15,1.881-4.121-1.2c-1.207-3.838-2.08-7.785-3.35-11.601c-4.446-13.369-11.264-25.629-18.518-37.585
					c-8.71-14.357-17.71-28.563-27.159-42.442c-10.554-15.504-19.138-31.88-24.653-49.811c-1.267-4.116-2.311-8.338-2.988-12.586
					c-0.407-2.555-1.715-3.546-3.885-4.309c-13.48-4.737-26.974-9.444-40.387-14.37c-18.749-6.886-36.274-16.004-52.203-28.222
					c-12.777-9.801-22.724-21.979-31.235-35.418c-3.84-6.063-7.085-12.512-10.448-18.865
					c-10.085-19.059-13.791-39.528-12.952-60.886c0.539-13.699,3.584-26.968,10.521-38.82
					c11.766-20.105,28.732-33.297,52.232-37.447c9.883-1.745,19.759-1.892,29.515-0.523c15.235,2.137,29.552,7.141,42.53,15.802
					c6.334,4.228,11.741,9.199,16.298,15.22c0.455,0.601,1.315,0.894,1.987,1.329c0.359-0.806,1.066-1.629,1.024-2.413
					c-0.528-9.778,1.652-19.067,4.981-28.143c0.703-1.916,0.459-3.377-0.677-5.081c-6.973-10.456-13.903-20.941-20.71-31.507
					c-11.338-17.603-17.267-37.013-19.53-57.748c-1.426-13.063-1.471-26.075,0.122-39.062c2.185-17.802,6.99-34.962,16.562-50.21
					c9.846-15.687,21.993-29.46,39.691-36.749c5.973-2.458,12.463-3.661,18.72-5.424c1.545-0.436,3.087-1.034,4.662-1.163
					c1.555-0.127,3.15,0.379,4.729,0.38c20.753,0.012,37.974,8.64,53.561,21.578c13.807,11.462,24.036,25.477,30.956,41.958
					c2.955,7.037,4.832,14.353,5.238,22.02c0.041,0.791,0.768,1.545,1.174,2.315c0.623-0.516,1.435-0.915,1.838-1.564
					c7.861-12.702,19.152-21.516,32.093-28.489c10.782-5.813,22.391-9.336,34.403-10.922c23.67-3.124,45.088,1.946,63.228,18.528
					c12.811,11.712,19.914,26.375,23.375,42.958C479.762,164.496,480.352,172.754,481.436,180.911z M425.92,194.495
					c-0.324-14.118-3.308-27.245-12.461-38.627c-9.562-11.889-21.738-18.455-36.849-19.104c-12.61-0.542-24.572,2.423-35.627,8.657
					c-9.652,5.444-18.539,11.666-22.787,22.604c-0.301,0.772-1.459,1.212-2.219,1.806c-0.479-1.032-1.492-2.149-1.344-3.082
					c0.791-4.922-0.23-9.604-1.765-14.146c-6.485-19.205-19.04-33.379-36.881-42.654c-13.932-7.243-28.307-7.499-42.641-0.687
					c-12.527,5.952-20.742,16.313-27.515,27.809c-5.043,8.561-7.602,18.142-9.142,28.021c-2.188,14.037-1.627,27.927,1.367,41.744
					c2.09,9.646,6,18.558,11.203,26.949c2.042,3.294,2.414,3.479,5.143,0.678c10.315-10.583,21.938-19.053,36.289-23.522
					c14.82-4.617,29.498-4.414,44.104,0.494c16.27,5.468,28.778,16.215,39.549,29.162c6.994,8.407,12.164,17.963,16.045,28.146
					c2.418,6.35,4.266,12.918,6.313,19.407c0.632,2.005,1.505,3.094,3.72,1.838c5.256-2.979,10.602-5.799,15.793-8.882
					c18.451-10.957,31.203-27.107,40.541-45.989C423.031,222.432,426.178,208.78,425.92,194.495z M85.896,368.8
					c0.333,3.46,0.431,7.616,1.17,11.654c5.319,29.001,19.917,51.975,44.729,68.224c14.118,9.245,29.896,14.724,45.701,20.14
					c1.979,0.678,2.776-0.277,3.189-2.121c1.028-4.585,1.927-9.221,3.313-13.701c5.687-18.383,15.087-34.143,31.894-44.647
					c7.73-4.832,16.02-7.783,25.121-8.307c17.9-1.027,32.723,5.955,45.598,17.793c1.744,1.605,2.748,2.046,4.091-0.4
					c4.051-7.393,8.567-14.541,12.356-22.061c5.912-11.73,10.096-24.073,11.1-37.302c0.086-1.145-0.34-2.328-0.528-3.493
					c-1.056,0.302-2.25,0.379-3.142,0.94c-7.389,4.644-15.071,8.918-21.973,14.209c-7.201,5.522-13.684,11.997-20.379,18.165
					c-3.18,2.93-4.729,2.678-6.115-1.382c-3.838-11.253-8.242-22.185-14.063-32.665c-11.285-20.318-24.771-39.05-39.043-57.283
					c-1.56-1.992-2.983-2.031-4.289,0.084c-7.174,11.629-12.535,23.792-10.971,37.976c0.127,1.156-0.524,2.396-0.813,3.598
					c-0.958-0.778-2.26-1.366-2.815-2.367c-2.662-4.811-6.336-8.666-10.69-11.912c-10.396-7.749-22.339-11.427-35.039-12.569
					c-11.099-0.999-21.963,0.578-31.715,6.302C93.37,328.95,86.505,346.907,85.896,368.8z M394.598,523.588
					c-0.529-3.892-0.881-7.814-1.623-11.665c-1.982-10.291-6.4-19.396-14.609-26.109c-10.789-8.826-23.393-11.304-36.842-8.582
					c-13.055,2.642-24.715,7.868-31.557,20.377c-0.34,0.623-1.314,0.899-1.994,1.338c-0.328-0.907-1.012-1.848-0.93-2.716
					c0.729-7.767-1.587-14.805-5.007-21.576c-1.168-2.316-2.383-2.334-3.684-0.159c-2.897,4.839-5.971,9.591-8.559,14.593
					c-3.875,7.494-7.625,15.073-11.015,22.8c-5.021,11.451-8.672,23.374-11.299,35.612c-0.957,4.465-2.709,5.238-5.746,2.604
					c-12.211-10.597-26.113-18.48-40.589-25.449c-0.833-0.399-1.914-0.283-2.879-0.406c-0.034,1.01-0.338,2.104-0.053,3.016
					c1.12,3.565,2.231,7.156,3.696,10.589c7.195,16.868,17.559,31.851,27.887,46.879c8.404,12.229,15.342,25.25,19.332,39.666
					c0.75,2.709,1.926,3.208,4.043,1.387c10.895-9.372,23.912-14.797,37.055-19.944c12.586-4.93,25.34-9.428,37.865-14.5
					c10.543-4.271,19.789-10.773,27.194-19.377C387.184,558.14,393.82,542.048,394.598,523.588z M253.096,265.528
					c-5.025,1.1-10.093,2.044-15.062,3.362c-2.832,0.75-3.008,1.827-1.234,4.046c4.423,5.539,9.131,10.873,13.237,16.635
					c10.274,14.42,19.446,29.482,25.024,46.452c0.969,2.95,1.842,3.124,4.168,0.995c3.607-3.302,7.056-6.843,10.988-9.706
					c5.414-3.942,11.192-7.386,16.869-10.959c1.832-1.153,2.444-2.385,1.588-4.53c-4.75-11.864-10.636-22.864-20.582-31.414
					C277.984,271.719,266.809,266.144,253.096,265.528z M259.621,444.494c-7.313,0.52-14.018,2.432-20.057,6.576
					c-10.921,7.498-16.789,18.396-20.724,30.604c-0.585,1.813,0.333,2.824,1.941,3.597c8.672,4.159,16.884,9.063,24.331,15.197
					c2.312,1.901,3.856,1.209,4.662-1.739c1.314-4.803,2.6-9.628,4.225-14.329c4.147-12.007,9.871-23.282,16.362-34.179
					c1.531-2.57,1.199-3.646-1.696-4.283C265.689,445.282,262.641,444.963,259.621,444.494z"/>
				<path fill="#FFFFFF" d="M425.92,194.495c0.258,14.285-2.89,27.938-9.162,40.625c-9.338,18.882-22.09,35.032-40.541,45.989
					c-5.191,3.083-10.537,5.903-15.793,8.882c-2.215,1.255-3.088,0.167-3.72-1.838c-2.047-6.489-3.895-13.058-6.313-19.407
					c-3.881-10.184-9.051-19.739-16.045-28.146c-10.771-12.947-23.279-23.694-39.549-29.162
					c-14.605-4.908-29.283-5.111-44.104-0.494c-14.351,4.47-25.974,12.939-36.289,23.522c-2.729,2.801-3.101,2.616-5.143-0.678
					c-5.203-8.392-9.113-17.304-11.203-26.949c-2.994-13.816-3.556-27.707-1.367-41.744c1.54-9.879,4.099-19.46,9.142-28.021
					c6.771-11.495,14.987-21.856,27.515-27.809c14.334-6.813,28.709-6.558,42.641,0.687c17.841,9.275,30.396,23.449,36.881,42.654
					c1.533,4.541,2.556,9.224,1.765,14.146c-0.148,0.933,0.864,2.05,1.344,3.082c0.76-0.594,1.918-1.033,2.219-1.806
					c4.248-10.938,13.136-17.161,22.787-22.604c11.055-6.233,23.017-9.199,35.627-8.657c15.109,0.648,27.287,7.215,36.849,19.104
					C422.613,167.25,425.596,180.376,425.92,194.495z"/>
				<path fill="#FFFFFF" d="M85.896,368.8c0.609-21.893,7.475-39.85,26.686-51.127c9.752-5.724,20.615-7.3,31.715-6.302
					c12.7,1.143,24.644,4.82,35.039,12.569c4.354,3.246,8.027,7.103,10.69,11.912c0.556,1.001,1.857,1.589,2.815,2.368
					c0.289-1.202,0.939-2.442,0.813-3.599c-1.563-14.184,3.798-26.346,10.972-37.976c1.305-2.116,2.729-2.077,4.289-0.084
					c14.273,18.233,27.759,36.965,39.043,57.284c5.82,10.479,10.226,21.411,14.063,32.664c1.385,4.06,2.937,4.312,6.115,1.382
					c6.695-6.168,13.178-12.643,20.379-18.165c6.9-5.292,14.584-9.566,21.973-14.209c0.892-0.562,2.086-0.639,3.142-0.94
					c0.188,1.165,0.614,2.349,0.528,3.493c-1.004,13.229-5.188,25.571-11.1,37.302c-3.789,7.52-8.307,14.668-12.357,22.061
					c-1.342,2.446-2.346,2.007-4.09,0.4c-12.875-11.838-27.696-18.82-45.598-17.793c-9.102,0.522-17.391,3.475-25.121,8.307
					c-16.807,10.506-26.207,26.266-31.894,44.647c-1.388,4.48-2.285,9.116-3.313,13.701c-0.413,1.844-1.21,2.799-3.189,2.121
					c-15.806-5.416-31.583-10.895-45.701-20.14c-24.812-16.249-39.409-39.223-44.729-68.224
					C86.326,376.416,86.229,372.26,85.896,368.8z"/>
				<path fill="#FFFFFF" d="M394.598,523.588c-0.777,18.46-7.414,34.553-19.31,48.373c-7.405,8.604-16.651,15.105-27.194,19.377
					c-12.525,5.071-25.279,9.57-37.865,14.5c-13.143,5.147-26.16,10.571-37.055,19.944c-2.117,1.821-3.293,1.322-4.043-1.387
					c-3.99-14.416-10.928-27.438-19.332-39.666c-10.329-15.028-20.691-30.011-27.887-46.879c-1.464-3.434-2.577-7.022-3.696-10.589
					c-0.285-0.91,0.019-2.006,0.053-3.017c0.965,0.124,2.047,0.007,2.879,0.407c14.476,6.969,28.378,14.854,40.589,25.449
					c3.037,2.635,4.789,1.859,5.746-2.604c2.627-12.237,6.277-24.161,11.3-35.611c3.389-7.727,7.139-15.306,11.014-22.801
					c2.588-5.002,5.66-9.753,8.559-14.592c1.301-2.175,2.516-2.158,3.684,0.159c3.421,6.771,5.736,13.81,5.007,21.576
					c-0.082,0.868,0.602,1.809,0.93,2.716c0.68-0.438,1.654-0.715,1.994-1.338c6.842-12.509,18.502-17.735,31.557-20.377
					c13.449-2.722,26.053-0.244,36.842,8.582c8.209,6.715,12.627,15.817,14.609,26.108
					C393.717,515.772,394.068,519.696,394.598,523.588z"/>
				<path fill="#FFFFFF" d="M253.096,265.528c13.713,0.616,24.889,6.191,34.998,14.881c9.946,8.55,15.832,19.55,20.582,31.414
					c0.856,2.146,0.244,3.377-1.588,4.53c-5.677,3.573-11.455,7.018-16.869,10.959c-3.934,2.862-7.381,6.404-10.988,9.706
					c-2.326,2.129-3.199,1.956-4.168-0.995c-5.578-16.97-14.75-32.032-25.024-46.452c-4.106-5.763-8.814-11.097-13.237-16.635
					c-1.772-2.219-1.597-3.296,1.234-4.046C243.003,267.572,248.07,266.628,253.096,265.528z"/>
				<path fill="#FFFFFF" d="M259.621,444.494c3.02,0.469,6.067,0.788,9.045,1.444c2.896,0.639,3.229,1.713,1.696,4.283
					c-6.491,10.896-12.215,22.172-16.362,34.179c-1.625,4.701-2.91,9.526-4.225,14.329c-0.806,2.948-2.351,3.642-4.662,1.739
					c-7.446-6.136-15.658-11.038-24.331-15.197c-1.608-0.771-2.526-1.782-1.941-3.597c3.935-12.209,9.803-23.106,20.724-30.604
					C245.604,446.926,252.309,445.013,259.621,444.494z"/>
			</g>
		</g>
	</g>
</g>
</svg>
