<?xml version="1.0" encoding="utf-8"?>
<!-- Generator: Adobe Illustrator 16.0.0, SVG Export Plug-In . SVG Version: 6.00 Build 0)  -->
<!DOCTYPE svg PUBLIC "-//W3C//DTD SVG 1.1//EN" "http://www.w3.org/Graphics/SVG/1.1/DTD/svg11.dtd">
<svg version="1.1" id="Layer_1" xmlns="http://www.w3.org/2000/svg" xmlns:xlink="http://www.w3.org/1999/xlink" x="0px" y="0px"
	 width="1280px" height="1280px" viewBox="0 0 1280 1280" enable-background="new 0 0 1280 1280" xml:space="preserve">
<g transform="translate(0.000000,1280.000000) scale(0.100000,-0.100000)">
	<path fill="#A70006" d="M3500.002,12618.996c-1077.998-117.998-1931.006-736.992-2352.998-1708.994
		c-395-910-428.008-2102.998-92.002-3396.005c115.996-447.998,272.002-888.994,480.996-1363.994
		c97.002-221.006,357.998-740,454.004-905c797.002-1359.004,2420.996-2905,4552.998-4337.002
		c115-77.002,215-137.002,222.002-134.004c22.998,7.998,385.996,252.998,635,427.998
		c1895.996,1327.002,3345.996,2741.006,4091.992,3988.008c109.999,182.998,178.007,312.998,324.999,615
		c484.004,993.994,751.006,1893.994,850,2859.999c27.002,265.996,24.004,857.998-5,1102.002
		c-60.996,500-163.994,875-345.996,1257.998c-369.004,773.994-1032.001,1310-1880.995,1520.996
		c-257.002,62.998-385,77.998-695,77.998c-287.002,1.006-357.002-5-592.002-50c-567.998-108.994-1124.004-405-1575-836.992
		c-205-197.002-422.998-461.006-579.004-702.002c-67.998-105-223.994-375-223.994-387.002c0-25.996-23.008,5-81.006,110
		c-80,145.996-292.998,465.996-393.994,592.002c-349.004,435.996-734.004,752.002-1180,970
		c-301.006,147.002-567.002,230-900,282.002C4065.998,12625.002,3645.002,12635.002,3500.002,12618.996z"/>
</g>
</svg>
